<svg width="45" height="50" viewBox="0 0 45 50" fill="none" xmlns="http://www.w3.org/2000/svg">
<path d="M26.7252 22.75C26.0899 23.086 25.3678 23.2219 24.6539 23.1398C23.9399 23.0577 23.2676 22.7615 22.7252 22.29C22.6639 22.2252 22.5891 22.1746 22.5062 22.1417C22.4232 22.1089 22.3342 22.0947 22.2452 22.1C22.1572 22.1094 22.072 22.1364 21.9947 22.1793C21.9174 22.2223 21.8497 22.2803 21.7952 22.35C21.7952 22.35 20.6751 23.83 18.2151 22.89C18.0971 22.8461 17.9682 22.8399 17.8465 22.8721C17.7247 22.9044 17.6161 22.9735 17.5352 23.07C17.4556 23.1669 17.407 23.2857 17.3963 23.4107C17.3856 23.5357 17.4132 23.661 17.4752 23.77C17.4752 23.77 18.5352 25.63 19.0052 31.77L20.2252 31.68C20.0985 29.2056 19.6926 26.7533 19.0152 24.37C19.5963 24.4845 20.1954 24.4685 20.7696 24.3233C21.3437 24.178 21.8783 23.9071 22.335 23.53C22.8586 23.8922 23.4506 24.1437 24.0748 24.2693C24.6989 24.3948 25.3422 24.3916 25.9651 24.26C25.1775 26.7507 24.6381 29.3132 24.355 31.91L25.565 32.04C25.8748 29.1369 26.5261 26.2805 27.5052 23.53C27.5507 23.4186 27.5616 23.2962 27.5367 23.1785C27.5117 23.0608 27.4519 22.9533 27.3651 22.87C27.2806 22.7916 27.1758 22.7387 27.0626 22.7175C26.9493 22.6962 26.8323 22.7075 26.7252 22.75Z" fill="#333333"/>
<path d="M27.8151 39.69H17.1851V40.91H27.8151V39.69Z" fill="#333333"/>
<path d="M28.5251 11.88L27.825 12.88C29.0988 13.7773 30.2256 14.8669 31.165 16.11L32.165 15.38C31.1446 14.028 29.9161 12.8466 28.5251 11.88Z" fill="#333333"/>
<path d="M3.23546 24.2825L0.420166 24.6552L0.580249 25.8646L3.39554 25.492L3.23546 24.2825Z" fill="#333333"/>
<path d="M2.56603 12.2655L1.84619 13.2504L4.26831 15.0206L4.98814 14.0356L2.56603 12.2655Z" fill="#333333"/>
<path d="M10.3096 2.93925L9.32764 3.66321L11.0307 5.97325L12.0127 5.2493L10.3096 2.93925Z" fill="#333333"/>
<path d="M23.105 0H21.885V2.89H23.105V0Z" fill="#333333"/>
<path d="M41.8456 24.4241L41.6855 25.6335L44.501 26.0062L44.6611 24.7968L41.8456 24.4241Z" fill="#333333"/>
<path d="M42.4639 12.0235L40.0417 13.7936L40.7616 14.7786L43.1837 13.0084L42.4639 12.0235Z" fill="#333333"/>
<path d="M34.8072 2.9251L33.1038 5.23474L34.0856 5.95888L35.789 3.64924L34.8072 2.9251Z" fill="#333333"/>
<path d="M22.5051 5.96002C18.9996 5.95324 15.5863 7.08306 12.7771 9.18005C9.96788 11.277 7.91406 14.2282 6.92381 17.591C5.93356 20.9538 6.06024 24.547 7.28465 27.8318C8.50906 31.1165 10.7653 33.9159 13.7151 35.81V42.71C13.7175 43.5096 14.0328 44.2764 14.5935 44.8464C15.1542 45.4164 15.9157 45.7443 16.7151 45.76H18.2351C18.2878 46.8424 18.7548 47.863 19.5395 48.6104C20.3242 49.3578 21.3663 49.7747 22.4499 49.7747C23.5336 49.7747 24.5759 49.3578 25.3606 48.6104C26.1453 47.863 26.6123 46.8424 26.665 45.76V45.76H28.185C28.9844 45.7443 29.7459 45.4164 30.3066 44.8464C30.8673 44.2764 31.1826 43.5096 31.185 42.71V35.81C34.1341 33.9163 36.3899 31.1179 37.6145 27.8341C38.8391 24.5503 38.9665 20.9581 37.9775 17.5958C36.9885 14.2335 34.9367 11.2823 32.1291 9.18454C29.3216 7.08676 25.9097 5.95541 22.405 5.96002H22.5051ZM22.5051 48.78C21.7095 48.78 20.9464 48.4639 20.3838 47.9013C19.8212 47.3387 19.5051 46.5756 19.5051 45.78H25.5051C25.5051 46.5756 25.1891 47.3387 24.6264 47.9013C24.0638 48.4639 23.3008 48.78 22.5051 48.78ZM30.0649 42.71C30.0649 43.1954 29.8722 43.6608 29.529 44.004C29.1858 44.3472 28.7204 44.54 28.2351 44.54H16.7651C16.2798 44.54 15.8141 44.3472 15.4709 44.004C15.1277 43.6608 14.935 43.1954 14.935 42.71V36.06H30.0649V42.71ZM30.5351 34.84H14.4651C11.7219 33.0999 9.61791 30.5163 8.46922 27.4777C7.32052 24.4391 7.18919 21.1097 8.09519 17.9901C9.0012 14.8705 10.8955 12.1293 13.4931 10.1787C16.0908 8.22816 19.2515 7.17358 22.5 7.17358C25.7485 7.17358 28.9091 8.22816 31.5068 10.1787C34.1045 12.1293 35.9988 14.8705 36.9048 17.9901C37.8108 21.1097 37.6797 24.4391 36.531 27.4777C35.3823 30.5163 33.2783 33.0999 30.5351 34.84Z" fill="#333333"/>
</svg>
