<svg width="28" height="20" viewBox="0 0 28 20" fill="none" xmlns="http://www.w3.org/2000/svg">
<g clip-path="url(#clip0_402_851)">
<path d="M24.5394 1.866C25.0227 1.86599 25.4862 2.0574 25.8287 2.39835C26.1711 2.73929 26.3646 3.202 26.3667 3.68523V16.3147C26.3604 16.7952 26.165 17.2537 25.823 17.5912C25.481 17.9287 25.0199 18.1178 24.5394 18.1178H3.43633C2.95384 18.1178 2.49112 17.9261 2.14995 17.585C1.80878 17.2438 1.61709 16.7811 1.61709 16.2986V3.68523C1.61709 3.20274 1.80878 2.74001 2.14995 2.39884C2.49112 2.05767 2.95384 1.866 3.43633 1.866H24.5394ZM24.5394 0.248901H3.43633C2.52561 0.251037 1.65281 0.613773 1.00883 1.25775C0.36486 1.90172 0.00213533 2.77451 0 3.68523V16.3147C0.00639142 17.2227 0.370994 18.0913 1.01451 18.7318C1.65802 19.3723 2.5284 19.7328 3.43633 19.7349H24.5394C25.4515 19.7349 26.3264 19.3731 26.9721 18.7289C27.6179 18.0847 27.9817 17.2107 27.9838 16.2986V3.68523C27.9817 2.77311 27.6179 1.89909 26.9721 1.25489C26.3264 0.61068 25.4515 0.248899 24.5394 0.248901Z" fill="#f8cf27"/>
<path d="M24.9195 3.96821L14.2305 9.90294C14.1705 9.94218 14.0999 9.96196 14.0283 9.95955H13.9798C13.9058 9.96112 13.8328 9.94148 13.7696 9.90294L3.0887 3.96821C3.04027 3.94125 2.99765 3.90499 2.96328 3.8615C2.92891 3.81801 2.90347 3.76816 2.88844 3.71481C2.87341 3.66145 2.86907 3.60565 2.87568 3.55062C2.8823 3.49559 2.89974 3.4424 2.92698 3.39413C2.95315 3.34597 2.98864 3.30352 3.03141 3.26924C3.07417 3.23496 3.12335 3.20956 3.17605 3.1945C3.22875 3.17944 3.28392 3.17504 3.33834 3.18156C3.39276 3.18807 3.44532 3.20536 3.49298 3.23242L14.0041 9.07014L24.5152 3.23242C24.6128 3.17774 24.7281 3.16406 24.8357 3.19439C24.9434 3.22471 25.0346 3.29656 25.0893 3.39413C25.144 3.4917 25.1576 3.607 25.1273 3.71466C25.097 3.82232 25.0251 3.91352 24.9276 3.96821H24.9195Z" fill="#f8cf27" stroke="#f8cf27" stroke-miterlimit="10"/>
</g>
<defs>
<clipPath id="clip0_402_851">
<rect width="28" height="19.5022" fill="white" transform="translate(0 0.248901)"/>
</clipPath>
</defs>
</svg>
