<svg xmlns="http://www.w3.org/2000/svg" xmlns:xlink="http://www.w3.org/1999/xlink" version="1.1" width="51" height="47" viewBox="0 0 256 256" xml:space="preserve">

<defs>
</defs>
<g style="stroke: none; stroke-width: 0; stroke-dasharray: none; stroke-linecap: butt; stroke-linejoin: miter; stroke-miterlimit: 10; fill: none; fill-rule: nonzero; opacity: 1;" transform="translate(1.4065934065934016 1.4065934065934016) scale(2.81 2.81)" >
	<path d="M 87.67 90 H 2.33 c -0.552 0 -1 -0.447 -1 -1 V 52.941 c 0 -0.553 0.448 -1 1 -1 h 85.34 c 0.553 0 1 0.447 1 1 V 89 C 88.67 89.553 88.223 90 87.67 90 z M 3.33 88 h 83.34 V 53.941 H 3.33 V 88 z" style="stroke: none; stroke-width: 1; stroke-dasharray: none; stroke-linecap: butt; stroke-linejoin: miter; stroke-miterlimit: 10; fill: rgb(0,0,0); fill-rule: nonzero; opacity: 1;" transform=" matrix(1 0 0 1 0 0) " stroke-linecap="round" />
	<path d="M 24.877 69.574 h -10.04 c -0.552 0 -1 -0.447 -1 -1 V 52.941 c 0 -0.553 0.448 -1 1 -1 h 10.04 c 0.552 0 1 0.447 1 1 v 15.633 C 25.877 69.127 25.43 69.574 24.877 69.574 z M 15.837 67.574 h 8.04 V 53.941 h -8.04 V 67.574 z" style="stroke: none; stroke-width: 1; stroke-dasharray: none; stroke-linecap: butt; stroke-linejoin: miter; stroke-miterlimit: 10; fill: rgb(0,0,0); fill-rule: nonzero; opacity: 1;" transform=" matrix(1 0 0 1 0 0) " stroke-linecap="round" />
	<path d="M 75.163 69.574 h -10.04 c -0.553 0 -1 -0.447 -1 -1 V 52.941 c 0 -0.553 0.447 -1 1 -1 h 10.04 c 0.553 0 1 0.447 1 1 v 15.633 C 76.163 69.127 75.716 69.574 75.163 69.574 z M 66.123 67.574 h 8.04 V 53.941 h -8.04 V 67.574 z" style="stroke: none; stroke-width: 1; stroke-dasharray: none; stroke-linecap: butt; stroke-linejoin: miter; stroke-miterlimit: 10; fill: rgb(0,0,0); fill-rule: nonzero; opacity: 1;" transform=" matrix(1 0 0 1 0 0) " stroke-linecap="round" />
	<path d="M 31.074 53.941 h -9.796 c -0.552 0 -1 -0.447 -1 -1 v -11.75 c 0 -0.552 0.448 -1 1 -1 h 9.796 c 0.552 0 1 0.448 1 1 v 11.75 C 32.074 53.494 31.626 53.941 31.074 53.941 z M 22.278 51.941 h 7.796 v -9.75 h -7.796 V 51.941 z" style="stroke: none; stroke-width: 1; stroke-dasharray: none; stroke-linecap: butt; stroke-linejoin: miter; stroke-miterlimit: 10; fill: rgb(0,0,0); fill-rule: nonzero; opacity: 1;" transform=" matrix(1 0 0 1 0 0) " stroke-linecap="round" />
	<path d="M 28.746 42.192 h -5.363 c -0.552 0 -1 -0.448 -1 -1 V 14.301 h -1.104 c -0.552 0 -1 -0.448 -1 -1 v -0.076 c -0.749 -1.332 -2.463 -2.269 -4.538 -2.464 c -1.989 -0.186 -4.636 0.317 -6.098 2.297 c -0.257 0.348 -0.711 0.491 -1.117 0.356 c -0.41 -0.135 -0.688 -0.518 -0.688 -0.95 C 7.838 5.591 13.43 0 20.303 0 h 10.669 c 0.552 0 1 0.448 1 1 v 0.298 c 0 0.274 0.112 0.526 0.315 0.711 c 0.202 0.185 0.463 0.276 0.744 0.245 c 0.484 -0.046 0.863 -0.503 0.863 -1.041 V 1 c 0 -0.552 0.448 -1 1 -1 h 2.977 c 1.68 0 3.047 1.367 3.047 3.047 v 7.371 c 0 1.68 -1.367 3.047 -3.047 3.047 h -2.977 c -0.552 0 -1 -0.448 -1 -1 v -0.298 c 0 -0.274 -0.112 -0.526 -0.315 -0.711 s -0.466 -0.273 -0.743 -0.245 c -0.484 0.046 -0.864 0.503 -0.864 1.04 v 1.05 c 0 0.552 -0.448 1 -1 1 h -1.226 v 26.891 C 29.746 41.744 29.298 42.192 28.746 42.192 z M 24.383 40.192 h 3.363 V 13.301 c 0 -0.552 0.448 -1 1 -1 h 1.226 v -0.05 c 0 -1.557 1.174 -2.888 2.674 -3.031 c 0.83 -0.078 1.663 0.196 2.278 0.756 c 0.44 0.399 0.746 0.92 0.885 1.489 h 2.062 c 0.577 0 1.047 -0.47 1.047 -1.047 V 3.047 C 38.917 2.47 38.447 2 37.87 2 h -2.079 c -0.316 1.198 -1.333 2.127 -2.571 2.245 c -0.83 0.078 -1.663 -0.196 -2.279 -0.756 c -0.439 -0.4 -0.745 -0.921 -0.884 -1.489 h -9.754 c -4.917 0 -9.053 3.408 -10.168 7.986 c 1.614 -0.968 3.66 -1.414 5.794 -1.217 c 2.793 0.264 5.059 1.576 6.125 3.532 h 1.33 c 0.552 0 1 0.448 1 1 V 40.192 z" style="stroke: none; stroke-width: 1; stroke-dasharray: none; stroke-linecap: butt; stroke-linejoin: miter; stroke-miterlimit: 10; fill: rgb(0,0,0); fill-rule: nonzero; opacity: 1;" transform=" matrix(1 0 0 1 0 0) " stroke-linecap="round" />
	<path d="M 49.255 53.941 h -7.732 c -0.552 0 -1 -0.447 -1 -1 V 37.752 c -3.723 -1.843 -6.092 -5.627 -6.092 -9.821 c 0 -4.166 2.32 -7.917 6.055 -9.791 c 0.308 -0.156 0.678 -0.14 0.974 0.043 c 0.295 0.182 0.475 0.504 0.475 0.851 v 6.658 c 0 1.905 1.55 3.455 3.455 3.455 s 3.455 -1.55 3.455 -3.455 v -6.658 c 0 -0.347 0.18 -0.669 0.475 -0.851 c 0.297 -0.182 0.664 -0.199 0.974 -0.043 c 3.735 1.874 6.056 5.625 6.056 9.791 c 0 4.193 -2.37 7.978 -6.093 9.821 v 15.189 C 50.255 53.494 49.808 53.941 49.255 53.941 z M 42.522 51.941 h 5.732 V 37.11 c 0 -0.402 0.241 -0.765 0.611 -0.921 c 3.33 -1.404 5.481 -4.646 5.481 -8.258 c 0 -2.828 -1.31 -5.423 -3.504 -7.099 v 4.859 c 0 3.008 -2.447 5.455 -5.455 5.455 s -5.455 -2.447 -5.455 -5.455 v -4.859 c -2.194 1.676 -3.503 4.271 -3.503 7.099 c 0 3.613 2.151 6.854 5.481 8.258 c 0.371 0.156 0.611 0.519 0.611 0.921 V 51.941 z" style="stroke: none; stroke-width: 1; stroke-dasharray: none; stroke-linecap: butt; stroke-linejoin: miter; stroke-miterlimit: 10; fill: rgb(0,0,0); fill-rule: nonzero; opacity: 1;" transform=" matrix(1 0 0 1 0 0) " stroke-linecap="round" />
	<path d="M 66.605 53.941 h -6.069 c -0.553 0 -1 -0.447 -1 -1 V 26.044 l -1.692 -3.323 c -0.123 -0.241 -0.143 -0.52 -0.057 -0.775 l 2.972 -8.752 c 0.138 -0.406 0.519 -0.679 0.947 -0.679 h 3.73 c 0.429 0 0.81 0.273 0.947 0.679 l 2.972 8.752 c 0.086 0.255 0.066 0.535 -0.057 0.775 l -1.693 3.323 v 26.897 C 67.605 53.494 67.158 53.941 66.605 53.941 z M 61.536 51.941 h 4.069 V 25.804 c 0 -0.158 0.037 -0.313 0.109 -0.454 l 1.61 -3.161 l -2.605 -7.674 h -2.297 l -2.605 7.674 l 1.609 3.161 c 0.072 0.141 0.109 0.296 0.109 0.454 V 51.941 z" style="stroke: none; stroke-width: 1; stroke-dasharray: none; stroke-linecap: butt; stroke-linejoin: miter; stroke-miterlimit: 10; fill: rgb(0,0,0); fill-rule: nonzero; opacity: 1;" transform=" matrix(1 0 0 1 0 0) " stroke-linecap="round" />
	<path d="M 16.239 53.941 H 8.196 c -0.446 0 -0.839 -0.296 -0.961 -0.725 L 1.664 33.737 c -0.357 -1.25 -0.207 -2.563 0.424 -3.7 c 0.631 -1.136 1.667 -1.959 2.917 -2.316 c 1.249 -0.358 2.563 -0.208 3.7 0.424 c 1.136 0.631 1.959 1.667 2.316 2.917 l 6.18 21.605 c 0.086 0.302 0.026 0.627 -0.163 0.878 C 16.849 53.794 16.553 53.941 16.239 53.941 z M 8.95 51.941 h 5.963 L 9.098 31.611 c -0.21 -0.736 -0.695 -1.346 -1.364 -1.718 c -0.669 -0.371 -1.443 -0.46 -2.18 -0.25 c -0.736 0.21 -1.346 0.695 -1.718 1.364 c -0.372 0.669 -0.46 1.443 -0.25 2.18 L 8.95 51.941 z" style="stroke: none; stroke-width: 1; stroke-dasharray: none; stroke-linecap: butt; stroke-linejoin: miter; stroke-miterlimit: 10; fill: rgb(0,0,0); fill-rule: nonzero; opacity: 1;" transform=" matrix(1 0 0 1 0 0) " stroke-linecap="round" />
	<path d="M 6.685 34.6 c -0.435 0 -0.835 -0.286 -0.961 -0.725 l -0.277 -0.969 c -0.152 -0.531 0.155 -1.085 0.686 -1.237 c 0.532 -0.153 1.084 0.155 1.237 0.686 l 0.277 0.969 c 0.152 0.531 -0.155 1.085 -0.686 1.237 C 6.869 34.587 6.776 34.6 6.685 34.6 z" style="stroke: none; stroke-width: 1; stroke-dasharray: none; stroke-linecap: butt; stroke-linejoin: miter; stroke-miterlimit: 10; fill: rgb(0,0,0); fill-rule: nonzero; opacity: 1;" transform=" matrix(1 0 0 1 0 0) " stroke-linecap="round" />
	<path d="M 78.982 53.941 h -7.957 c -0.307 0 -0.597 -0.141 -0.786 -0.382 s -0.258 -0.556 -0.186 -0.854 l 2.845 -11.733 c -2.153 -2.232 -3.03 -5.416 -2.293 -8.454 c 0.572 -2.358 2.028 -4.354 4.101 -5.617 c 2.073 -1.264 4.514 -1.646 6.871 -1.072 c 4.869 1.18 7.871 6.102 6.69 10.972 c -0.736 3.038 -2.975 5.467 -5.911 6.464 l -2.402 9.911 C 79.846 53.626 79.444 53.941 78.982 53.941 z M 72.297 51.941 h 5.899 l 2.352 -9.701 c 0.086 -0.356 0.359 -0.636 0.713 -0.73 c 2.512 -0.672 4.451 -2.657 5.063 -5.179 c 0.92 -3.798 -1.421 -7.636 -5.218 -8.557 c -1.838 -0.445 -3.741 -0.149 -5.359 0.836 c -1.616 0.985 -2.752 2.541 -3.198 4.381 c -0.611 2.522 0.204 5.175 2.128 6.922 c 0.271 0.246 0.386 0.62 0.3 0.976 L 72.297 51.941 z" style="stroke: none; stroke-width: 1; stroke-dasharray: none; stroke-linecap: butt; stroke-linejoin: miter; stroke-miterlimit: 10; fill: rgb(0,0,0); fill-rule: nonzero; opacity: 1;" transform=" matrix(1 0 0 1 0 0) " stroke-linecap="round" />
	<path d="M 79.444 39.171 c -0.356 0 -0.715 -0.042 -1.07 -0.129 c -1.171 -0.284 -2.16 -1.006 -2.787 -2.035 s -0.815 -2.239 -0.531 -3.409 c 0.283 -1.17 1.006 -2.16 2.034 -2.787 c 1.028 -0.626 2.237 -0.816 3.409 -0.532 c 1.171 0.284 2.16 1.006 2.787 2.034 s 0.815 2.239 0.531 3.409 l 0 0 c -0.283 1.17 -1.006 2.161 -2.034 2.788 C 81.067 38.947 80.263 39.171 79.444 39.171 z M 79.432 32.152 c -0.455 0 -0.902 0.125 -1.301 0.368 c -0.572 0.349 -0.974 0.899 -1.132 1.55 c -0.158 0.651 -0.053 1.325 0.296 1.897 c 0.349 0.572 0.899 0.974 1.55 1.132 c 0.652 0.157 1.325 0.054 1.897 -0.296 c 0.572 -0.349 0.974 -0.899 1.132 -1.55 v 0 c 0.158 -0.651 0.053 -1.325 -0.296 -1.896 s -0.899 -0.974 -1.55 -1.132 C 79.83 32.175 79.631 32.152 79.432 32.152 z" style="stroke: none; stroke-width: 1; stroke-dasharray: none; stroke-linecap: butt; stroke-linejoin: miter; stroke-miterlimit: 10; fill: rgb(0,0,0); fill-rule: nonzero; opacity: 1;" transform=" matrix(1 0 0 1 0 0) " stroke-linecap="round" />
</g>
</svg>