<svg xmlns="http://www.w3.org/2000/svg" xmlns:xlink="http://www.w3.org/1999/xlink" version="1.1" width="51" height="47" viewBox="0 0 256 256" xml:space="preserve">

<defs>
</defs>
<g style="stroke: none; stroke-width: 0; stroke-dasharray: none; stroke-linecap: butt; stroke-linejoin: miter; stroke-miterlimit: 10; fill: none; fill-rule: nonzero; opacity: 1;" transform="translate(1.4065934065934016 1.4065934065934016) scale(2.81 2.81)" >
	<path d="M 72.11 31.688 H 52.26 V 4.653 C 52.26 2.087 50.172 0 47.606 0 s -4.652 2.087 -4.652 4.653 v 27.035 H 23.104 c -0.552 0 -1 0.448 -1 1 v 7.306 c 0 20.837 -6.348 38.877 -16.981 48.257 c -0.312 0.275 -0.421 0.715 -0.274 1.104 S 5.368 90 5.784 90 h 49.007 c 0.243 0 0.479 -0.089 0.661 -0.25 C 66.51 79.996 73.11 61.396 73.11 39.993 v -7.306 C 73.11 32.135 72.663 31.688 72.11 31.688 z M 44.954 4.653 C 44.954 3.19 46.144 2 47.606 2 s 2.653 1.19 2.653 2.653 v 27.035 h -5.306 V 4.653 z M 24.104 33.688 h 19.851 h 7.306 H 71.11 v 5.306 H 24.104 V 33.688 z M 54.41 88 H 8.289 c 9.778 -9.961 15.605 -27.241 15.796 -47.007 h 14.339 c -0.155 11.267 -2.907 23.094 -7.806 33.419 c -0.237 0.499 -0.024 1.096 0.475 1.332 c 0.139 0.065 0.284 0.097 0.428 0.097 c 0.374 0 0.733 -0.211 0.904 -0.571 c 5.023 -10.588 7.845 -22.719 7.999 -34.276 H 54.76 c -0.155 11.267 -2.907 23.094 -7.805 33.419 c -0.237 0.499 -0.024 1.096 0.475 1.332 c 0.139 0.065 0.284 0.097 0.428 0.097 c 0.374 0 0.733 -0.211 0.904 -0.571 c 5.023 -10.588 7.844 -22.718 7.999 -34.276 h 14.332 C 70.892 61.222 64.704 78.706 54.41 88 z" style="stroke: none; stroke-width: 1; stroke-dasharray: none; stroke-linecap: butt; stroke-linejoin: miter; stroke-miterlimit: 10; fill: rgb(0,0,0); fill-rule: nonzero; opacity: 1;" transform=" matrix(1 0 0 1 0 0) " stroke-linecap="round" />
	<path d="M 77.216 84.405 c 0 1.295 0 2.68 -0.373 3.655 c -0.338 0.885 -1.147 1.94 -3.08 1.94 c -3.007 0 -5.453 -2.446 -5.453 -5.453 c 0 -1.933 1.056 -2.742 1.941 -3.081 c 0.976 -0.372 2.198 -0.372 3.494 -0.372 l 0 0 c 1.479 0 2.275 0 2.873 0.597 s 0.598 1.393 0.598 2.836 L 77.216 84.405 z M 73.78 83.094 c -1.141 0 -2.185 0 -2.815 0.241 c -0.345 0.132 -0.655 0.323 -0.655 1.212 c 0 1.904 1.549 3.453 3.453 3.453 c 0.889 0 1.08 -0.31 1.213 -0.655 c 0.24 -0.629 0.24 -1.673 0.24 -2.777 v -0.041 c 0 -0.554 0 -1.124 -0.043 -1.39 C 74.907 83.094 74.336 83.094 73.78 83.094 L 73.78 83.094 z" style="stroke: none; stroke-width: 1; stroke-dasharray: none; stroke-linecap: butt; stroke-linejoin: miter; stroke-miterlimit: 10; fill: rgb(0,0,0); fill-rule: nonzero; opacity: 1;" transform=" matrix(1 0 0 1 0 0) " stroke-linecap="round" />
	<path d="M 76.22 76.25 c -0.14 0 -0.27 -0.03 -0.39 -0.08 s -0.23 -0.12 -0.32 -0.22 c -0.09 -0.091 -0.17 -0.2 -0.22 -0.32 s -0.07 -0.25 -0.07 -0.38 c 0 -0.271 0.1 -0.521 0.29 -0.71 c 0.37 -0.37 1.04 -0.37 1.41 0 c 0.05 0.05 0.09 0.1 0.13 0.149 c 0.03 0.061 0.06 0.12 0.09 0.181 c 0.021 0.06 0.04 0.12 0.061 0.18 c 0.01 0.07 0.02 0.13 0.02 0.2 c 0 0.13 -0.03 0.26 -0.08 0.38 s -0.12 0.229 -0.22 0.32 c -0.09 0.1 -0.2 0.17 -0.32 0.22 S 76.35 76.25 76.22 76.25 z" style="stroke: none; stroke-width: 1; stroke-dasharray: none; stroke-linecap: butt; stroke-linejoin: miter; stroke-miterlimit: 10; fill: rgb(0,0,0); fill-rule: nonzero; opacity: 1;" transform=" matrix(1 0 0 1 0 0) " stroke-linecap="round" />
	<path d="M 84.22 86.25 c -0.27 0 -0.52 -0.11 -0.71 -0.3 c -0.19 -0.19 -0.3 -0.44 -0.3 -0.7 c 0 -0.13 0.03 -0.26 0.08 -0.38 c 0.05 -0.13 0.13 -0.24 0.22 -0.33 c 0.37 -0.37 1.04 -0.37 1.41 0 c 0.1 0.09 0.17 0.2 0.22 0.33 c 0.05 0.12 0.08 0.25 0.08 0.38 c 0 0.26 -0.11 0.51 -0.3 0.7 c -0.09 0.1 -0.2 0.17 -0.32 0.22 S 84.35 86.25 84.22 86.25 z" style="stroke: none; stroke-width: 1; stroke-dasharray: none; stroke-linecap: butt; stroke-linejoin: miter; stroke-miterlimit: 10; fill: rgb(0,0,0); fill-rule: nonzero; opacity: 1;" transform=" matrix(1 0 0 1 0 0) " stroke-linecap="round" />
</g>
</svg>