<svg xmlns="http://www.w3.org/2000/svg" xmlns:xlink="http://www.w3.org/1999/xlink" version="1.1" width="51" height="47" viewBox="0 0 256 256" xml:space="preserve">

<defs>
</defs>
<g style="stroke: none; stroke-width: 0; stroke-dasharray: none; stroke-linecap: butt; stroke-linejoin: miter; stroke-miterlimit: 10; fill: none; fill-rule: nonzero; opacity: 1;" transform="translate(1.4065934065934016 1.4065934065934016) scale(2.81 2.81)" >
	<path d="M 79.396 36.477 c -9.399 0 -17.047 -7.647 -17.047 -17.047 c 0 -0.552 -0.447 -1 -1 -1 H 60.95 c -0.553 0 -1 0.448 -1 1 c 0 3.977 -1.38 7.631 -3.671 10.534 c -6.568 -8.84 -11.454 -18.421 -14.884 -29.266 C 41.264 0.283 40.878 0 40.442 0 s -0.822 0.283 -0.954 0.698 c -4.501 14.234 -11.629 26.546 -21.79 37.641 c -0.024 0.026 -0.047 0.054 -0.068 0.082 l -0.095 0.103 c -0.121 0.13 -0.242 0.259 -0.358 0.393 c -4.885 5.609 -7.575 12.799 -7.575 20.244 C 9.603 76.166 23.438 90 40.442 90 S 71.28 76.166 71.28 59.161 c 0 -5.343 -1.397 -10.573 -4.018 -15.192 c 3.094 -3.14 7.388 -5.092 12.134 -5.092 c 0.553 0 1 -0.448 1 -1 v -0.4 C 80.396 36.924 79.949 36.477 79.396 36.477 z M 69.28 59.161 C 69.28 75.063 56.344 88 40.442 88 S 11.603 75.063 11.603 59.161 c 0 -6.963 2.515 -13.686 7.083 -18.93 c 0.101 -0.116 0.207 -0.229 0.312 -0.342 l 0.185 -0.199 c 0.026 -0.028 0.05 -0.058 0.072 -0.089 c 9.628 -10.536 16.58 -22.151 21.187 -35.423 c 3.476 10.028 8.242 18.996 14.483 27.324 c -3.085 3.072 -7.335 4.974 -12.021 4.974 c -0.552 0 -1 0.448 -1 1 v 0.4 c 0 0.552 0.448 1 1 1 c 9.399 0 17.046 7.647 17.046 17.046 c 0 0.553 0.447 1 1 1 h 0.399 c 0.553 0 1 -0.447 1 -1 c 0 -3.889 1.323 -7.466 3.524 -10.338 C 68.099 49.747 69.28 54.407 69.28 59.161 z M 61.15 50.453 c -1.836 -6.112 -6.665 -10.941 -12.777 -12.777 c 6.112 -1.835 10.941 -6.665 12.777 -12.776 c 1.835 6.112 6.665 10.941 12.777 12.776 C 67.815 39.512 62.985 44.341 61.15 50.453 z" style="stroke: none; stroke-width: 1; stroke-dasharray: none; stroke-linecap: butt; stroke-linejoin: miter; stroke-miterlimit: 10; fill: rgb(0,0,0); fill-rule: nonzero; opacity: 1;" transform=" matrix(1 0 0 1 0 0) " stroke-linecap="round" />
	<path d="M 41.959 63.279 c -5.19 0 -9.413 -4.223 -9.413 -9.412 c 0 -0.553 -0.448 -1 -1 -1 h -0.231 c -0.552 0 -1 0.447 -1 1 c 0 5.189 -4.222 9.412 -9.412 9.412 c -0.552 0 -1 0.447 -1 1 v 0.231 c 0 0.553 0.448 1 1 1 c 5.19 0 9.412 4.223 9.412 9.412 c 0 0.553 0.448 1 1 1 h 0.231 c 0.552 0 1 -0.447 1 -1 c 0 -5.189 4.223 -9.412 9.413 -9.412 c 0.552 0 1 -0.447 1 -1 v -0.231 C 42.959 63.727 42.512 63.279 41.959 63.279 z M 31.432 70.518 c -1.158 -2.756 -3.367 -4.965 -6.123 -6.122 c 2.756 -1.158 4.965 -3.367 6.123 -6.123 c 1.157 2.756 3.367 4.965 6.123 6.123 C 34.798 65.553 32.589 67.762 31.432 70.518 z" style="stroke: none; stroke-width: 1; stroke-dasharray: none; stroke-linecap: butt; stroke-linejoin: miter; stroke-miterlimit: 10; fill: rgb(0,0,0); fill-rule: nonzero; opacity: 1;" transform=" matrix(1 0 0 1 0 0) " stroke-linecap="round" />
</g>
</svg>