<svg width="43" height="43" viewBox="0 0 43 43" fill="none" xmlns="http://www.w3.org/2000/svg">
<circle cx="21.5" cy="21.5" r="21.5" fill="#333333"/>
<path d="M17.4688 10C13.918 10 11 13.0465 11 16.7628V26.2372C11 29.9494 13.9141 33 17.4688 33H26.5312C30.082 33 33 29.9535 33 26.2372V16.7628C33 13.0506 30.0859 10 26.5312 10H17.4688ZM17.4688 12.0909H26.5312C29.0039 12.0909 31 14.1777 31 16.7628V26.2372C31 28.8223 29.0039 30.9091 26.5312 30.9091H17.4688C14.9961 30.9091 13 28.8223 13 26.2372V16.7628C13 14.1777 14.9961 12.0909 17.4688 12.0909ZM27.9062 14.3778C27.4023 14.3778 27 14.7985 27 15.3253C27 15.8521 27.4023 16.2727 27.9062 16.2727C28.4102 16.2727 28.8125 15.8521 28.8125 15.3253C28.8125 14.7985 28.4102 14.3778 27.9062 14.3778ZM22 15.2273C18.6992 15.2273 16 18.0492 16 21.5C16 24.9508 18.6992 27.7727 22 27.7727C25.3008 27.7727 28 24.9508 28 21.5C28 18.0492 25.3008 15.2273 22 15.2273ZM22 17.3182C24.2227 17.3182 26 19.1763 26 21.5C26 23.8237 24.2227 25.6818 22 25.6818C19.7773 25.6818 18 23.8237 18 21.5C18 19.1763 19.7773 17.3182 22 17.3182Z" fill="white"/>
</svg>
