<svg width="43" height="43" viewBox="0 0 43 43" fill="none" xmlns="http://www.w3.org/2000/svg">
<circle cx="21.5" cy="21.5" r="21.5" fill="#333333"/>
<path d="M23.0723 20.711C23.2869 20.4615 23.459 20.206 23.6833 19.9907C24.0017 19.6671 24.3789 19.4129 24.7929 19.2429C25.2069 19.0729 25.6494 18.9906 26.0943 19.0009C26.6063 18.9917 27.117 19.056 27.6121 19.192C28.7451 19.532 29.4025 20.3448 29.7158 21.4956C29.9266 22.3577 30.021 23.2461 29.9961 24.1352C29.9961 26.0103 29.9961 27.8874 29.9961 29.7686C29.9961 29.9456 29.9497 29.9899 29.7834 29.9899C28.8541 29.9818 27.9247 29.9818 26.9953 29.9899C26.8329 29.9899 26.802 29.9376 26.802 29.7887C26.802 28.0021 26.802 26.2169 26.802 24.433C26.8135 23.9846 26.7634 23.5368 26.6531 23.1031C26.4308 22.2984 25.8797 21.896 25.0735 21.9382C23.9714 21.9986 23.3991 22.566 23.2579 23.7308C23.2254 24.0092 23.2092 24.2894 23.2096 24.5698C23.2096 26.3041 23.2096 28.0404 23.2096 29.7766C23.2096 29.9496 23.169 30.002 22.9988 29.9999C22.063 29.9919 21.1279 29.9919 20.1933 29.9999C20.0425 29.9999 20 29.9577 20 29.7988C20 26.3597 20 22.9227 20 19.4877C20 19.3167 20.0522 19.2765 20.2069 19.2866C21.0963 19.2866 21.9838 19.2866 22.8732 19.2866C23.0356 19.2866 23.0781 19.3389 23.0665 19.4998C23.0665 19.8901 23.0723 20.3005 23.0723 20.711Z" fill="#FEFEFE"/>
<path d="M18 24.5196C18 26.2645 18 28.0075 18 29.7504C18 29.9443 17.9446 30.002 17.7086 29.9999C16.5527 29.9999 15.3968 29.9999 14.2408 29.9999C14.0554 29.9999 14 29.9608 14 29.7937C14 26.2639 14 22.7347 14 19.2063C14 19.0598 14.041 19 14.224 19C15.3968 19 16.5695 19 17.7423 19C17.9687 19 17.9976 19.0722 17.9976 19.2372C17.996 21.0014 17.9968 22.7622 18 24.5196Z" fill="#FEFEFE"/>
<path d="M18 14.9959C18.0008 15.392 17.884 15.7795 17.6642 16.1092C17.4445 16.4389 17.1318 16.6959 16.7658 16.8476C16.3998 16.9993 15.997 17.0389 15.6085 16.9613C15.22 16.8838 14.8633 16.6926 14.5836 16.412C14.3039 16.1314 14.1138 15.7741 14.0375 15.3853C13.9611 14.9965 14.002 14.5939 14.1549 14.2284C14.3077 13.8629 14.5657 13.551 14.896 13.3323C15.2264 13.1136 15.6142 12.998 16.0104 13C16.5378 13.0044 17.0423 13.2163 17.4146 13.5898C17.787 13.9633 17.9973 14.4684 18 14.9959Z" fill="#FEFEFE"/>
</svg>
