<svg xmlns="http://www.w3.org/2000/svg" xmlns:xlink="http://www.w3.org/1999/xlink" width="150" zoomAndPan="magnify" viewBox="0 0 375 150" height="150" preserveAspectRatio="xMidYMid meet" version="1.0"><defs><g/><clipPath id="d70de7a587"><path d="M 1 0 L 105 0 L 105 140.832031 L 1 140.832031 Z M 1 0 " clip-rule="nonzero"/></clipPath><clipPath id="d238c9ab11"><path d="M 77 43 L 105.421875 43 L 105.421875 78 L 77 78 Z M 77 43 " clip-rule="nonzero"/></clipPath></defs><path fill="#f8cf27" d="M 99.554688 45.421875 L 99.554688 35.648438 C 99.554688 34.816406 98.878906 34.140625 98.046875 34.140625 L 84.960938 34.140625 C 84.785156 34.140625 84.613281 34.171875 84.453125 34.226562 C 84.378906 27.617188 81.070312 24.703125 76.050781 20.789062 C 70.671875 16.589844 45.558594 18.964844 34.546875 20.234375 C 23.53125 21.503906 21.382812 29.992188 20.554688 36.742188 C 19.730469 43.492188 44.773438 99.261719 48.140625 107.402344 C 51.507812 115.542969 53.3125 117.722656 58.984375 121.210938 C 67.996094 126.761719 77.402344 115.707031 79.808594 111.308594 C 82.214844 106.90625 84.589844 98.25 84.691406 93.792969 C 84.707031 93.132812 85.003906 92.570312 85.496094 92.101562 L 85.496094 104.578125 C 85.496094 105.492188 86.238281 106.234375 87.148438 106.234375 L 96.175781 106.234375 C 97.089844 106.234375 97.828125 105.492188 97.828125 104.578125 L 97.828125 91.792969 C 98.226562 92.09375 98.507812 92.441406 98.628906 92.832031 C 99.691406 96.207031 99.484375 107.035156 97.625 112.382812 C 95.765625 117.730469 85.007812 138.460938 63.472656 138.445312 C 41.933594 138.425781 35.550781 120.082031 31.324219 111.128906 C 27.097656 102.171875 9.339844 66.421875 4.675781 41.464844 C 0.0117188 16.511719 20.082031 8.828125 21.375 8.21875 C 25.851562 6.109375 41.902344 3.003906 49.527344 2.941406 C 57.152344 2.882812 69.789062 2.320312 81.082031 5.714844 C 92.375 9.109375 100.921875 27.417969 101.410156 29.789062 C 101.847656 31.921875 100.496094 41.992188 99.554688 45.421875 " fill-opacity="1" fill-rule="nonzero"/><g clip-path="url(#d70de7a587)"><path fill="#000000" d="M 85.296875 36.625 Z M 96.203125 93.59375 C 96.203125 93.59375 96.203125 93.597656 96.207031 93.597656 C 96.203125 93.597656 96.203125 93.59375 96.203125 93.59375 Z M 56.675781 5.414062 C 54.988281 5.414062 53.40625 5.4375 51.96875 5.453125 C 51.117188 5.464844 50.304688 5.476562 49.546875 5.480469 C 41.972656 5.542969 26.472656 8.628906 22.457031 10.519531 C 22.394531 10.550781 22.292969 10.59375 22.160156 10.652344 C 16.417969 13.164062 3.464844 21.148438 7.175781 41 C 11.390625 63.5625 26.585938 95.324219 32.304688 107.28125 C 32.828125 108.371094 33.273438 109.296875 33.625 110.042969 C 33.976562 110.792969 34.34375 111.601562 34.730469 112.457031 C 38.957031 121.785156 45.339844 135.886719 63.472656 135.902344 C 63.480469 135.902344 63.492188 135.902344 63.496094 135.902344 C 82.484375 135.902344 93.027344 117.867188 95.222656 111.546875 C 95.5 110.75 95.738281 109.808594 95.933594 108.773438 L 87.148438 108.773438 C 86 108.773438 84.957031 108.308594 84.195312 107.554688 C 83.519531 109.445312 82.78125 111.171875 82.039062 112.527344 C 80.53125 115.28125 75 122.859375 67.597656 124.824219 C 64.074219 125.757812 60.726562 125.273438 57.652344 123.375 C 51.414062 119.539062 49.308594 116.875 45.792969 108.375 C 45.210938 106.964844 43.921875 104 42.289062 100.242188 C 38.257812 90.972656 32.167969 76.957031 27.035156 64.257812 C 18.644531 43.492188 17.777344 38.539062 18.035156 36.433594 C 18.445312 33.066406 19.222656 28.730469 21.59375 25.054688 C 24.320312 20.835938 28.578125 18.363281 34.253906 17.710938 C 40.257812 17.015625 49.136719 16.144531 57.339844 15.921875 C 71.71875 15.527344 75.796875 17.367188 77.613281 18.785156 C 81.667969 21.945312 85.839844 25.203125 86.796875 31.597656 L 98.046875 31.597656 C 98.355469 31.597656 98.65625 31.632812 98.945312 31.699219 C 98.96875 31.042969 98.964844 30.554688 98.917969 30.292969 C 98.417969 28.15625 90.335938 11.148438 80.351562 8.148438 C 72.457031 5.777344 63.664062 5.414062 56.675781 5.414062 Z M 63.496094 140.984375 C 63.488281 140.984375 63.480469 140.984375 63.46875 140.984375 C 54.15625 140.976562 46.355469 137.703125 40.285156 131.257812 C 35.238281 125.902344 32.269531 119.34375 30.097656 114.554688 C 29.722656 113.71875 29.363281 112.929688 29.023438 112.210938 C 28.675781 111.472656 28.238281 110.554688 27.71875 109.472656 C 21.921875 97.351562 6.515625 65.152344 2.179688 41.933594 C 1.078125 36.050781 1.203125 30.574219 2.542969 25.660156 C 3.652344 21.597656 5.597656 17.902344 8.316406 14.6875 C 10.476562 12.132812 14.277344 8.550781 20.121094 5.996094 C 20.195312 5.960938 20.253906 5.9375 20.292969 5.921875 C 25.304688 3.558594 41.6875 0.460938 49.507812 0.398438 C 50.257812 0.394531 51.058594 0.382812 51.902344 0.371094 C 59.613281 0.265625 71.265625 0.109375 81.8125 3.28125 C 88.503906 5.292969 93.984375 11.691406 97.398438 16.703125 C 101.011719 22.003906 103.535156 27.503906 103.898438 29.277344 C 104.46875 32.042969 102.941406 42.683594 102.007812 46.09375 C 101.667969 47.324219 100.476562 48.109375 99.214844 47.941406 C 97.953125 47.773438 97.011719 46.695312 97.011719 45.421875 L 97.011719 36.679688 L 85.113281 36.679688 C 84.390625 36.875 83.617188 36.742188 82.996094 36.308594 C 82.328125 35.835938 81.921875 35.074219 81.914062 34.253906 C 81.851562 28.792969 79.324219 26.566406 74.488281 22.792969 C 72.113281 20.941406 60.304688 19.820312 34.835938 22.761719 C 25.914062 23.789062 23.914062 30.238281 23.078125 37.050781 C 23.011719 37.789062 23.445312 41.820312 31.816406 62.515625 C 36.910156 75.117188 42.953125 89.015625 46.953125 98.214844 C 48.65625 102.144531 49.890625 104.980469 50.492188 106.429688 C 53.777344 114.378906 55.386719 116.015625 60.316406 119.046875 C 62.183594 120.199219 64.140625 120.480469 66.296875 119.910156 C 71.519531 118.523438 76.152344 112.691406 77.578125 110.085938 C 79.75 106.117188 82.054688 97.867188 82.148438 93.734375 C 82.179688 92.417969 82.734375 91.214844 83.753906 90.253906 C 84.492188 89.558594 85.574219 89.367188 86.503906 89.769531 C 87.4375 90.171875 88.039062 91.089844 88.039062 92.101562 L 88.039062 103.691406 L 95.285156 103.691406 L 95.285156 91.792969 C 95.285156 90.828125 95.835938 89.945312 96.699219 89.515625 C 97.5625 89.085938 98.597656 89.183594 99.363281 89.765625 C 100.207031 90.40625 100.777344 91.183594 101.054688 92.074219 C 102.308594 96.066406 102.027344 107.46875 100.027344 113.21875 C 98.957031 116.289062 95.59375 123.109375 89.761719 129.1875 C 82.351562 136.90625 73.269531 140.984375 63.496094 140.984375 " fill-opacity="1" fill-rule="nonzero"/></g><path fill="#f8cf27" d="M 99.554688 35.648438 L 99.554688 45.421875 C 99.542969 45.460938 99.53125 45.503906 99.519531 45.539062 L 83.449219 45.539062 L 83.449219 35.648438 C 83.449219 34.992188 83.867188 34.433594 84.453125 34.226562 C 84.613281 34.171875 84.785156 34.140625 84.960938 34.140625 L 98.046875 34.140625 C 98.878906 34.140625 99.554688 34.816406 99.554688 35.648438 " fill-opacity="1" fill-rule="nonzero"/><path fill="#000000" d="M 85.992188 43 L 97.011719 43 L 97.011719 36.679688 L 85.992188 36.679688 Z M 99.554688 45.421875 L 99.558594 45.421875 Z M 99.519531 48.082031 L 83.449219 48.082031 C 82.046875 48.082031 80.910156 46.945312 80.910156 45.539062 L 80.910156 35.648438 C 80.910156 33.9375 81.992188 32.402344 83.605469 31.832031 C 84.046875 31.675781 84.5 31.597656 84.960938 31.597656 L 98.046875 31.597656 C 100.277344 31.597656 102.097656 33.414062 102.097656 35.648438 L 102.097656 45.421875 C 102.097656 45.664062 102.0625 45.90625 101.992188 46.136719 C 101.976562 46.203125 101.957031 46.261719 101.941406 46.316406 C 101.605469 47.367188 100.625 48.082031 99.519531 48.082031 " fill-opacity="1" fill-rule="nonzero"/><path fill="#f8cf27" d="M 99.554688 45.421875 L 99.554688 45.539062 L 99.519531 45.539062 C 99.53125 45.503906 99.542969 45.460938 99.554688 45.421875 " fill-opacity="1" fill-rule="nonzero"/><path fill="#000000" d="M 99.554688 48.082031 L 99.519531 48.082031 C 98.710938 48.082031 97.945312 47.695312 97.46875 47.039062 C 96.996094 46.394531 96.855469 45.5625 97.089844 44.796875 L 97.113281 44.707031 C 97.472656 43.492188 98.664062 42.726562 99.914062 42.90625 C 101.167969 43.085938 102.097656 44.15625 102.097656 45.421875 L 102.097656 45.539062 C 102.097656 46.945312 100.957031 48.082031 99.554688 48.082031 " fill-opacity="1" fill-rule="nonzero"/><path fill="#f8cf27" d="M 99.554688 75.425781 L 99.554688 87.707031 C 99.554688 87.945312 99.457031 88.160156 99.300781 88.316406 C 99.144531 88.472656 98.929688 88.570312 98.691406 88.570312 C 98.214844 88.570312 97.828125 88.957031 97.828125 89.433594 L 97.828125 104.578125 C 97.828125 105.492188 97.089844 106.234375 96.175781 106.234375 L 87.148438 106.234375 C 86.238281 106.234375 85.496094 105.492188 85.496094 104.578125 L 85.496094 89.433594 C 85.496094 89.191406 85.402344 88.976562 85.246094 88.820312 C 85.089844 88.667969 84.875 88.570312 84.632812 88.570312 C 84.15625 88.570312 83.773438 88.183594 83.773438 87.707031 L 83.773438 75.425781 L 99.554688 75.425781 " fill-opacity="1" fill-rule="nonzero"/><path fill="#000000" d="M 88.039062 103.691406 L 95.285156 103.691406 L 95.285156 89.433594 C 95.285156 88.167969 95.984375 87.058594 97.011719 86.472656 L 97.011719 77.964844 L 86.3125 77.964844 L 86.3125 86.46875 C 86.578125 86.617188 86.820312 86.804688 87.042969 87.023438 C 87.683594 87.667969 88.039062 88.523438 88.039062 89.433594 Z M 96.175781 108.773438 L 87.148438 108.773438 C 84.835938 108.773438 82.957031 106.894531 82.957031 104.578125 L 82.957031 90.667969 C 81.925781 90.082031 81.230469 88.972656 81.230469 87.707031 L 81.230469 75.425781 C 81.230469 74.019531 82.367188 72.882812 83.773438 72.882812 L 99.554688 72.882812 C 100.957031 72.882812 102.097656 74.019531 102.097656 75.425781 L 102.097656 87.707031 C 102.097656 88.617188 101.742188 89.472656 101.097656 90.113281 C 100.878906 90.335938 100.636719 90.519531 100.371094 90.671875 L 100.371094 104.578125 C 100.371094 106.894531 98.488281 108.773438 96.175781 108.773438 " fill-opacity="1" fill-rule="nonzero"/><path fill="#000000" d="M 94.207031 99.695312 C 94.207031 101.097656 93.066406 102.238281 91.664062 102.238281 C 90.257812 102.238281 89.121094 101.097656 89.121094 99.695312 C 89.121094 98.289062 90.257812 97.152344 91.664062 97.152344 C 93.066406 97.152344 94.207031 98.289062 94.207031 99.695312 " fill-opacity="1" fill-rule="nonzero"/><path fill="#000000" d="M 102.917969 46.761719 L 102.917969 65.871094 C 102.917969 66.515625 102.417969 67.042969 101.777344 67.085938 L 101.222656 73.964844 C 101.152344 74.789062 100.464844 75.425781 99.636719 75.425781 L 83.367188 75.425781 C 82.539062 75.425781 81.851562 74.789062 81.785156 73.964844 L 81.226562 67.085938 C 80.585938 67.042969 80.085938 66.515625 80.085938 65.871094 L 80.085938 46.761719 C 80.085938 46.085938 80.628906 45.539062 81.304688 45.539062 L 101.699219 45.539062 C 102.375 45.539062 102.917969 46.085938 102.917969 46.761719 " fill-opacity="1" fill-rule="nonzero"/><g clip-path="url(#d238c9ab11)"><path fill="#000000" d="M 84.246094 72.882812 L 98.757812 72.882812 L 99.246094 66.878906 C 99.3125 66.078125 99.746094 65.382812 100.378906 64.964844 L 100.378906 48.082031 L 82.625 48.082031 L 82.625 64.964844 C 83.257812 65.382812 83.695312 66.078125 83.757812 66.878906 Z M 99.636719 77.964844 L 83.367188 77.964844 C 81.230469 77.964844 79.421875 76.296875 79.25 74.167969 L 78.804688 68.675781 C 78.027344 67.984375 77.542969 66.980469 77.542969 65.871094 L 77.542969 46.761719 C 77.542969 44.6875 79.230469 43 81.304688 43 L 101.699219 43 C 103.773438 43 105.460938 44.6875 105.460938 46.761719 L 105.460938 65.871094 C 105.460938 66.980469 104.976562 67.984375 104.203125 68.675781 L 103.753906 74.167969 C 103.582031 76.300781 101.773438 77.964844 99.636719 77.964844 " fill-opacity="1" fill-rule="nonzero"/></g><g fill="#ffffff" fill-opacity="1"><g transform="translate(120.380637, 82.163886)"><g><path d="M 25.15625 -38.65625 L 25.15625 -30.921875 L 11.625 -30.921875 L 11.625 -23.25 L 24.125 -23.25 L 24.125 -15.515625 L 11.625 -15.515625 L 11.625 0 L 2.8125 0 L 2.8125 -38.65625 Z M 25.15625 -38.65625 "/></g></g></g><g fill="#ffffff" fill-opacity="1"><g transform="translate(146.945474, 82.163886)"><g><path d="M 2.8125 0 L 2.8125 -40.296875 L 11.109375 -40.296875 L 11.109375 0 Z M 2.8125 0 "/></g></g></g><g fill="#ffffff" fill-opacity="1"><g transform="translate(160.86039, 82.163886)"><g><path d="M 5.078125 -2.859375 C 2.410156 -5.234375 1.078125 -8.28125 1.078125 -12 C 1.078125 -15.71875 2.46875 -18.769531 5.25 -21.15625 C 8.03125 -23.539062 11.46875 -24.734375 15.5625 -24.734375 C 19.59375 -24.734375 22.988281 -23.53125 25.75 -21.125 C 28.507812 -18.726562 29.890625 -15.6875 29.890625 -12 C 29.890625 -8.3125 28.539062 -5.269531 25.84375 -2.875 C 23.144531 -0.488281 19.71875 0.703125 15.5625 0.703125 C 11.25 0.703125 7.753906 -0.484375 5.078125 -2.859375 Z M 11.5 -16.078125 C 10.425781 -15.015625 9.890625 -13.65625 9.890625 -12 C 9.890625 -10.34375 10.40625 -8.988281 11.4375 -7.9375 C 12.46875 -6.894531 13.828125 -6.375 15.515625 -6.375 C 17.140625 -6.375 18.472656 -6.90625 19.515625 -7.96875 C 20.566406 -9.03125 21.09375 -10.375 21.09375 -12 C 21.09375 -13.65625 20.550781 -15.015625 19.46875 -16.078125 C 18.394531 -17.140625 17.078125 -17.671875 15.515625 -17.671875 C 13.921875 -17.671875 12.582031 -17.140625 11.5 -16.078125 Z M 11.5 -16.078125 "/></g></g></g><g fill="#ffffff" fill-opacity="1"><g transform="translate(191.829279, 82.163886)"><g><path d="M 17.578125 0 L 11.953125 0 L -0.9375 -24.03125 L 8.625 -24.03125 L 14.484375 -11.0625 L 20.25 -24.03125 L 25.953125 -24.03125 L 31.71875 -11.0625 L 37.578125 -24.03125 L 47.140625 -24.03125 L 34.25 0 L 28.625 0 L 23.109375 -12.421875 Z M 17.578125 0 "/></g></g></g><g fill="#ffffff" fill-opacity="1"><g transform="translate(238.024932, 82.163886)"><g><path d="M 22.453125 -38.65625 L 38.046875 0 L 28.578125 0 L 25.71875 -7.734375 L 11.015625 -7.734375 L 8.15625 0 L -1.3125 0 L 14.296875 -38.65625 Z M 22.734375 -15.46875 L 18.421875 -26.703125 L 18.328125 -26.703125 L 14.015625 -15.46875 Z M 22.734375 -15.46875 "/></g></g></g><g fill="#ffffff" fill-opacity="1"><g transform="translate(274.756562, 82.163886)"><g><path d="M 2.8125 0 L 2.8125 -40.296875 L 11.109375 -40.296875 L 11.109375 0 Z M 2.8125 0 "/></g></g></g><g fill="#ffffff" fill-opacity="1"><g transform="translate(288.671479, 82.163886)"><g><path d="M 27.546875 -21.0625 C 29.796875 -18.613281 30.921875 -15.609375 30.921875 -12.046875 C 30.921875 -8.484375 29.796875 -5.46875 27.546875 -3 C 25.296875 -0.53125 22.441406 0.703125 18.984375 0.703125 C 15.796875 0.703125 13.171875 -0.296875 11.109375 -2.296875 L 11.109375 12.1875 L 2.8125 12.1875 L 2.8125 -24.03125 L 11.015625 -24.03125 L 11.015625 -21.328125 L 11.109375 -21.328125 C 13.171875 -23.597656 15.796875 -24.734375 18.984375 -24.734375 C 22.441406 -24.734375 25.296875 -23.507812 27.546875 -21.0625 Z M 20.5 -7.96875 C 21.582031 -9.03125 22.125 -10.390625 22.125 -12.046875 C 22.125 -13.703125 21.609375 -15.050781 20.578125 -16.09375 C 19.546875 -17.144531 18.1875 -17.671875 16.5 -17.671875 C 14.875 -17.671875 13.535156 -17.140625 12.484375 -16.078125 C 11.441406 -15.015625 10.921875 -13.671875 10.921875 -12.046875 C 10.921875 -10.390625 11.457031 -9.03125 12.53125 -7.96875 C 13.613281 -6.90625 14.9375 -6.375 16.5 -6.375 C 18.09375 -6.375 19.425781 -6.90625 20.5 -7.96875 Z M 20.5 -7.96875 "/></g></g></g><g fill="#ffffff" fill-opacity="1"><g transform="translate(320.671091, 82.163886)"><g><path d="M 3.609375 -37.4375 C 4.578125 -38.40625 5.734375 -38.890625 7.078125 -38.890625 C 8.421875 -38.890625 9.578125 -38.40625 10.546875 -37.4375 C 11.515625 -36.46875 12 -35.3125 12 -33.96875 C 12 -32.625 11.515625 -31.46875 10.546875 -30.5 C 9.578125 -29.53125 8.421875 -29.046875 7.078125 -29.046875 C 5.734375 -29.046875 4.578125 -29.53125 3.609375 -30.5 C 2.640625 -31.46875 2.15625 -32.625 2.15625 -33.96875 C 2.15625 -35.3125 2.640625 -36.46875 3.609375 -37.4375 Z M 2.8125 -24.03125 L 2.8125 0 L 11.109375 0 L 11.109375 -24.03125 Z M 2.8125 -24.03125 "/></g></g></g><g fill="#ffffff" fill-opacity="1"><g transform="translate(334.820268, 82.163886)"><g><path d="M 2.8125 0 L 2.8125 -24.03125 L 11.109375 -24.03125 L 11.109375 -21.515625 L 11.203125 -21.515625 C 13.359375 -23.660156 15.65625 -24.734375 18.09375 -24.734375 C 19.28125 -24.734375 20.457031 -24.578125 21.625 -24.265625 C 22.789062 -23.953125 23.910156 -23.46875 24.984375 -22.8125 C 26.066406 -22.164062 26.941406 -21.238281 27.609375 -20.03125 C 28.285156 -18.832031 28.625 -17.4375 28.625 -15.84375 L 28.625 0 L 20.34375 0 L 20.34375 -13.59375 C 20.34375 -14.84375 19.941406 -15.9375 19.140625 -16.875 C 18.347656 -17.8125 17.3125 -18.28125 16.03125 -18.28125 C 14.78125 -18.28125 13.644531 -17.796875 12.625 -16.828125 C 11.613281 -15.859375 11.109375 -14.78125 11.109375 -13.59375 L 11.109375 0 Z M 2.8125 0 "/></g></g></g></svg>