<svg width="51" height="39" viewBox="0 0 51 39" fill="none" xmlns="http://www.w3.org/2000/svg">
<path d="M22.6499 10.6L19.5999 20.32C18.1206 20.0775 16.6579 19.7436 15.22 19.32L14.8599 20.47C16.2918 20.9184 17.7517 21.2725 19.23 21.53L16.46 30.36L17.6099 30.72L20.4399 21.72C21.9176 21.9321 23.4073 22.049 24.8999 22.07V24.22H26.1099V22.07C27.6025 22.0486 29.0921 21.9316 30.5698 21.72L33.3899 30.72L34.5498 30.36L31.7798 21.53C33.2576 21.2702 34.7173 20.9161 36.1499 20.47L35.7898 19.32C34.3516 19.7425 32.889 20.0764 31.4099 20.32L28.3599 10.6C29.1402 10.0289 29.7313 9.23669 30.0564 8.32593C30.3815 7.41517 30.4257 6.4278 30.1833 5.49164C29.941 4.55547 29.423 3.71357 28.6968 3.07501C27.9706 2.43645 27.0693 2.0306 26.1099 1.90997V0H24.8999V1.90997C23.9404 2.0306 23.0392 2.43645 22.313 3.07501C21.5868 3.71357 21.0691 4.55547 20.8267 5.49164C20.5843 6.4278 20.6283 7.41517 20.9534 8.32593C21.2784 9.23669 21.8695 10.0289 22.6499 10.6ZM30.2 20.5C28.8444 20.6885 27.4783 20.792 26.1099 20.81V18.81H24.8999V20.81C23.5314 20.792 22.1654 20.6885 20.8098 20.5L23.73 11.2C24.8698 11.6537 26.1399 11.6537 27.2798 11.2L30.2 20.5ZM25.5 3.08997C26.2164 3.08997 26.9167 3.30253 27.5122 3.70074C28.1077 4.09896 28.5715 4.66491 28.8452 5.32697C29.1189 5.98902 29.1901 6.71744 29.0496 7.41992C28.9091 8.12241 28.5634 8.76739 28.0562 9.27325C27.5489 9.77912 26.9028 10.1231 26.2 10.2617C25.4971 10.4002 24.769 10.3271 24.1077 10.0516C23.4464 9.77605 22.8817 9.31049 22.4851 8.71387C22.0885 8.11725 21.8779 7.4164 21.8799 6.70001C21.8825 5.74166 22.265 4.82345 22.9436 4.14673C23.6222 3.47001 24.5416 3.08996 25.5 3.08997Z" fill="#333333"/>
<path d="M25.5 9.17C25.9993 9.17198 26.4879 9.02561 26.9038 8.74947C27.3198 8.47333 27.6442 8.07985 27.8362 7.61898C28.0282 7.1581 28.0789 6.65061 27.982 6.16085C27.885 5.67109 27.6448 5.22115 27.2918 4.86812C26.9387 4.5151 26.4888 4.27485 25.999 4.17794C25.5093 4.08102 25.0019 4.13178 24.541 4.32375C24.0802 4.51572 23.6866 4.84031 23.4104 5.25625C23.1343 5.67219 22.988 6.16074 22.99 6.65999C22.99 6.98961 23.0548 7.31604 23.1809 7.62057C23.3071 7.92509 23.492 8.20176 23.7251 8.43484C23.9582 8.66791 24.2348 8.85283 24.5393 8.97896C24.8439 9.1051 25.1704 9.17 25.5 9.17ZM25.5 5.36001C25.7571 5.36001 26.0084 5.43628 26.2222 5.57912C26.436 5.72197 26.6026 5.92495 26.7009 6.1625C26.7993 6.40004 26.8251 6.66148 26.7749 6.91366C26.7248 7.16583 26.601 7.39744 26.4192 7.57925C26.2374 7.76105 26.0056 7.88486 25.7534 7.93502C25.5013 7.98518 25.24 7.95944 25.0025 7.86104C24.7649 7.76265 24.5618 7.59601 24.419 7.38222C24.2761 7.16844 24.2 6.91711 24.2 6.65999C24.2026 6.31602 24.3403 5.98691 24.5835 5.74367C24.8267 5.50044 25.156 5.36262 25.5 5.36001Z" fill="#333333"/>
<path d="M45.6499 2.39004C44.5997 2.38972 43.578 2.73241 42.7405 3.36599C41.9029 3.99957 41.2955 4.88932 41.01 5.89998H33.75V7.11001H40.8299C40.8244 7.14647 40.8244 7.18353 40.8299 7.21999V34.08H42.0398C42.0378 33.3636 42.2485 32.6627 42.645 32.0661C43.0416 31.4695 43.6063 31.0039 44.2676 30.7284C44.9289 30.4529 45.657 30.3798 46.3599 30.5183C47.0628 30.6569 47.7088 31.0009 48.2161 31.5067C48.7234 32.0126 49.0692 32.6576 49.2097 33.3601C49.3502 34.0626 49.2791 34.791 49.0054 35.453C48.7317 36.1151 48.2677 36.681 47.6721 37.0792C47.0766 37.4775 46.3763 37.69 45.6599 37.69H5.31984C4.60345 37.69 3.90316 37.4775 3.30764 37.0792C2.71212 36.681 2.24832 36.1151 1.97463 35.453C1.70094 34.791 1.62979 34.0626 1.77028 33.3601C1.91077 32.6576 2.25642 32.0126 2.76369 31.5067C3.27096 31.0009 3.91702 30.6569 4.61989 30.5183C5.32276 30.3798 6.05089 30.4529 6.71218 30.7284C7.37347 31.0039 7.93817 31.4695 8.33474 32.0661C8.7313 32.6627 8.94194 33.3636 8.93996 34.08H10.1599V7.21999C10.1599 7.21999 10.1599 7.14001 10.1599 7.11001H17.24V5.89998H9.98C9.66413 4.77553 8.95156 3.80366 7.97414 3.16427C6.99673 2.52487 5.82065 2.26131 4.66384 2.42238C3.50702 2.58346 2.44771 3.15828 1.68215 4.04036C0.916584 4.92245 0.496688 6.05202 0.50002 7.21999V34.08C0.502662 35.3602 1.01227 36.5872 1.9175 37.4924C2.82273 38.3976 4.04967 38.9073 5.32985 38.91H45.6499C46.2842 38.91 46.9123 38.785 47.4983 38.5423C48.0843 38.2996 48.6167 37.9438 49.0652 37.4953C49.5137 37.0468 49.8696 36.5144 50.1123 35.9284C50.3551 35.3424 50.48 34.7143 50.48 34.08V7.21999C50.48 5.939 49.971 4.71051 49.0652 3.80471C48.1594 2.89891 46.9309 2.39004 45.6499 2.39004V2.39004ZM1.69997 7.21999C1.67415 6.72927 1.74847 6.23842 1.91848 5.77736C2.08849 5.31631 2.35052 4.89471 2.68874 4.53823C3.02696 4.18174 3.43428 3.89788 3.88576 3.70388C4.33725 3.50988 4.82356 3.40981 5.31496 3.40981C5.80636 3.40981 6.29267 3.50988 6.74416 3.70388C7.19565 3.89788 7.60272 4.18174 7.94094 4.53823C8.27916 4.89471 8.54143 5.31631 8.71145 5.77736C8.88146 6.23842 8.95577 6.72927 8.92995 7.21999V30.88C8.47941 30.3643 7.92358 29.9509 7.30007 29.6676C6.67655 29.3844 5.9998 29.2378 5.31496 29.2378C4.63013 29.2378 3.95313 29.3844 3.32961 29.6676C2.70609 29.9509 2.15051 30.3643 1.69997 30.88V7.21999ZM49.27 30.88C48.8177 30.3655 48.2607 29.9532 47.6365 29.6709C47.0123 29.3885 46.335 29.2425 45.6499 29.2425C44.9648 29.2425 44.2876 29.3885 43.6633 29.6709C43.0391 29.9532 42.4822 30.3655 42.0298 30.88V7.21999C42.0298 6.25991 42.4112 5.33918 43.0901 4.6603C43.769 3.98142 44.6898 3.6 45.6499 3.6C46.61 3.6 47.5309 3.98142 48.2097 4.6603C48.8886 5.33918 49.27 6.25991 49.27 7.21999V30.88Z" fill="#333333"/>
</svg>
