<?xml version="1.0" standalone="no"?>
<!DOCTYPE svg PUBLIC "-//W3C//DTD SVG 20010904//EN"
 "http://www.w3.org/TR/2001/REC-SVG-20010904/DTD/svg10.dtd">
<svg version="1.0" xmlns="http://www.w3.org/2000/svg"
 width="28.000000pt" height="28.000000pt" viewBox="5 1 28.000000 28.000000"
 preserveAspectRatio="xMidYMid meet">

<g transform="translate(0.000000,31.000000) scale(0.100000,-0.100000)"
fill="#f8cf27" stroke="none">
<path d="M85 287 c-3 -7 -4 -69 -3 -138 l3 -124 75 0 75 0 0 135 0 135 -73 3
c-54 2 -74 -1 -77 -11z m40 -17 c3 -5 19 -10 35 -10 16 0 32 5 35 10 18 29 25
-1 25 -110 l0 -120 -60 0 -60 0 0 120 c0 109 7 139 25 110z"/>
<path d="M150 60 c0 -5 5 -10 10 -10 6 0 10 5 10 10 0 6 -4 10 -10 10 -5 0
-10 -4 -10 -10z"/>
</g>
</svg>
