<svg width="51" height="47" viewBox="0 0 51 47" fill="none" xmlns="http://www.w3.org/2000/svg">
<path d="M40.45 31.94L38.8999 33.2899L37.23 31.2899C36.6566 30.6594 36.3485 29.832 36.3699 28.98C36.3641 28.2489 36.6196 27.5397 37.0901 26.98L45.68 15.83C46.1039 15.2846 46.3733 14.6353 46.46 13.95C46.5177 13.5156 46.4797 13.0737 46.3484 12.6557C46.2171 12.2376 45.9957 11.8533 45.7 11.5299L42.0701 7.52992C41.55 6.97125 40.8324 6.63765 40.0701 6.59999C39.4107 6.59344 38.7675 6.80429 38.24 7.19997L37.02 5.79994C36.3856 5.07422 35.4891 4.62984 34.5274 4.56422C33.5656 4.49861 32.6171 4.81714 31.8899 5.44997L24.01 12.32L14.1399 1.01003C13.9042 0.73444 13.6155 0.509174 13.2908 0.347672C12.9661 0.18617 12.612 0.0916802 12.25 0.0699618C11.8889 0.0439729 11.5262 0.0898496 11.1829 0.20485C10.8396 0.319849 10.5226 0.501736 10.25 0.740006C9.69838 1.2222 9.36019 1.90324 9.30959 2.63417C9.25899 3.3651 9.50007 4.08642 9.98 4.64003L16.2 11.7799C16.3345 11.9321 16.4375 12.1095 16.5027 12.3018C16.5679 12.4941 16.5942 12.6974 16.5801 12.8999C16.5578 13.2045 16.4458 13.4957 16.2586 13.737C16.0713 13.9782 15.8171 14.1588 15.5276 14.256C15.2381 14.3532 14.9263 14.3627 14.6314 14.2833C14.3365 14.204 14.0715 14.0393 13.8699 13.81L10.02 9.39992C9.66147 8.98617 9.18795 8.68846 8.65969 8.54457C8.13143 8.40068 7.57236 8.41719 7.05349 8.59193C6.53462 8.76668 6.07946 9.09175 5.74587 9.52589C5.41228 9.96004 5.21518 10.4836 5.17995 11.0299C5.15419 11.3918 5.20111 11.7552 5.31789 12.0986C5.43467 12.4421 5.61913 12.7587 5.86013 13.0299L8.75002 16.35C9.01858 16.6612 9.15335 17.0658 9.12526 17.4758C9.09718 17.8859 8.9086 18.2683 8.60012 18.5399C8.4472 18.6726 8.26942 18.7738 8.07717 18.8373C7.88491 18.9008 7.68188 18.9254 7.48 18.9099C7.27709 18.9006 7.07838 18.8497 6.89602 18.7603C6.71365 18.6708 6.55148 18.5448 6.41994 18.39L5.41994 17.21C5.18159 16.9368 4.89189 16.7133 4.56716 16.5521C4.24242 16.391 3.88905 16.2954 3.52736 16.2708C3.16568 16.2462 2.80282 16.293 2.45925 16.4087C2.11568 16.5244 1.79807 16.7066 1.52492 16.945C1.25177 17.1833 1.02835 17.4731 0.867207 17.7979C0.706062 18.1226 0.610321 18.4759 0.585713 18.8375C0.561106 19.1992 0.607976 19.5622 0.723652 19.9058C0.839329 20.2493 1.02168 20.5668 1.26003 20.84L8.45998 29.1L9.36989 28.31L2.16994 20.0499C1.90138 19.7388 1.76661 19.3342 1.7947 18.9241C1.82279 18.514 2.01161 18.1317 2.32009 17.86C2.63476 17.5943 3.0387 17.4584 3.44997 17.48C3.85956 17.5093 4.24085 17.6999 4.51003 18.01L5.51003 19.1799C5.74726 19.4538 6.03644 19.6779 6.36086 19.8392C6.68528 20.0006 7.03839 20.0961 7.39992 20.12C7.76123 20.1488 8.12484 20.1043 8.46853 19.9892C8.81221 19.874 9.12889 19.6906 9.39992 19.45C9.95156 18.9678 10.2897 18.2866 10.3404 17.5557C10.391 16.8247 10.1499 16.1036 9.66994 15.5499L6.77004 12.23C6.50315 11.9199 6.3668 11.5185 6.38991 11.11C6.41029 10.8032 6.52166 10.5093 6.70949 10.2659C6.89732 10.0224 7.15324 9.84037 7.44484 9.74281C7.73645 9.64525 8.05043 9.63662 8.34694 9.71803C8.64346 9.79945 8.90922 9.96718 9.11013 10.2L12.95 14.61C13.1883 14.8838 13.4783 15.1079 13.8032 15.2697C14.1282 15.4314 14.4819 15.5277 14.844 15.5527C15.2062 15.5778 15.5697 15.5312 15.9138 15.4158C16.258 15.3004 16.5763 15.1184 16.8501 14.88C17.1239 14.6417 17.348 14.3517 17.5098 14.0267C17.6715 13.7018 17.7677 13.348 17.7927 12.9859C17.8178 12.6237 17.7712 12.2602 17.6558 11.916C17.5404 11.5719 17.3582 11.2538 17.1199 10.98L10.8899 3.83998C10.7289 3.69149 10.6014 3.51054 10.5154 3.3091C10.4294 3.10766 10.387 2.89026 10.3911 2.67128C10.3953 2.4523 10.4458 2.23675 10.5393 2.03871C10.6329 1.84067 10.7674 1.66466 10.9339 1.52235C11.1004 1.38005 11.2952 1.2747 11.5054 1.21315C11.7156 1.1516 11.9364 1.13529 12.1533 1.1653C12.3703 1.19531 12.5783 1.27092 12.7639 1.38722C12.9495 1.50352 13.1084 1.65783 13.23 1.83998L23.0901 13.1499L11.48 23.2799C10.7528 23.913 10.3065 24.8088 10.239 25.7705C10.1715 26.7323 10.4883 27.6815 11.1199 28.4099L14.8101 32.64C15.1225 33.0036 15.5047 33.3006 15.9341 33.5136C16.3635 33.7266 16.8316 33.8512 17.3101 33.88H17.5601C18.4382 33.8822 19.2872 33.566 19.95 32.99L40.3601 15.19C41.0874 14.5531 41.5332 13.6543 41.6001 12.69C41.634 12.2129 41.5727 11.7339 41.4199 11.2807C41.2672 10.8274 41.0258 10.4091 40.71 10.0499L39.0401 8.14003C39.3339 7.93707 39.6829 7.82884 40.0401 7.82997C40.4696 7.85988 40.8723 8.04888 41.1699 8.36L44.8101 12.36C44.9826 12.5474 45.1093 12.7722 45.1804 13.0169C45.2516 13.2615 45.2651 13.5193 45.22 13.77C45.1644 14.2169 44.9919 14.6411 44.72 15L36.1399 26.1499C35.5012 26.917 35.1478 27.8818 35.1399 28.88C35.1135 30.0535 35.5398 31.1921 36.3301 32.06L38 34.06L36.44 35.4199L46.49 46.95L50.49 43.4299L40.45 31.94ZM39.51 14.2L19.1001 31.99C18.8619 32.2022 18.583 32.3638 18.2805 32.4652C17.978 32.5666 17.6581 32.6057 17.3401 32.58C17.0229 32.56 16.7127 32.4772 16.4278 32.3364C16.1428 32.1957 15.8886 31.9998 15.68 31.76L11.99 27.5299C11.568 27.0435 11.3554 26.4101 11.3985 25.7676C11.4415 25.1251 11.7368 24.5257 12.22 24.1L32.6399 6.30995C33.0785 5.92191 33.6444 5.70843 34.23 5.70998C34.5767 5.70917 34.9194 5.78284 35.2351 5.92604C35.5509 6.06924 35.8323 6.27858 36.0601 6.53993L39.75 10.77C40.1708 11.2577 40.3819 11.8919 40.3369 12.5344C40.292 13.177 39.9947 13.7757 39.51 14.2ZM38.1299 35.57L40.3301 33.6499L48.7901 43.35L46.5801 45.27L38.1299 35.57Z" fill="#333333"/>
</svg>
