<svg xmlns="http://www.w3.org/2000/svg" xmlns:xlink="http://www.w3.org/1999/xlink" version="1.1" width="51" height="47" viewBox="0 0 256 256" xml:space="preserve">

<defs>
</defs>
<g style="stroke: none; stroke-width: 0; stroke-dasharray: none; stroke-linecap: butt; stroke-linejoin: miter; stroke-miterlimit: 10; fill: none; fill-rule: nonzero; opacity: 1;" transform="translate(1.4065934065934016 1.4065934065934016) scale(2.81 2.81)" >
	<path d="M 33.406 84.506 c -0.593 0 -1.186 -0.117 -1.75 -0.351 c -1.128 -0.468 -2.007 -1.347 -2.473 -2.475 c -0.474 -1.143 -1.485 -1.266 -1.897 -1.266 c -0.413 0 -1.423 0.123 -1.897 1.267 c -0.966 2.326 -3.644 3.436 -5.971 2.475 l -5.614 -2.325 c -1.128 -0.468 -2.006 -1.347 -2.473 -2.474 c -0.467 -1.127 -0.468 -2.37 0 -3.498 c 0.474 -1.144 -0.154 -1.946 -0.445 -2.238 c -0.292 -0.293 -1.091 -0.92 -2.237 -0.445 c -2.326 0.964 -5.005 -0.145 -5.972 -2.471 L 0.35 65.09 c -0.467 -1.128 -0.467 -2.371 0 -3.499 c 0.467 -1.128 1.346 -2.007 2.474 -2.473 c 1.145 -0.475 1.268 -1.485 1.267 -1.897 c 0 -0.413 -0.124 -1.424 -1.268 -1.897 L 3.206 54.4 l -0.384 0.923 c -2.327 -0.964 -3.435 -3.643 -2.472 -5.971 l 2.325 -5.613 c 0.965 -2.326 3.643 -3.435 5.97 -2.475 c 1.145 0.474 1.948 -0.153 2.24 -0.444 c 0.291 -0.292 0.919 -1.094 0.445 -2.238 c -0.963 -2.327 0.145 -5.006 2.471 -5.972 l 5.615 -2.325 c 2.329 -0.963 5.006 0.147 5.971 2.471 c 0.475 1.146 1.485 1.27 1.898 1.27 c 0.413 0 1.424 -0.124 1.898 -1.268 c 0.466 -1.127 1.345 -2.006 2.474 -2.473 c 1.119 -0.465 2.376 -0.464 3.497 0 l 5.614 2.325 c 2.328 0.966 3.437 3.645 2.473 5.972 c -0.474 1.144 0.154 1.946 0.445 2.238 c 0.292 0.292 1.091 0.918 2.238 0.445 c 1.128 -0.468 2.371 -0.467 3.498 0 c 1.129 0.468 2.008 1.347 2.474 2.475 l 2.325 5.612 c 0.964 2.327 -0.145 5.006 -2.473 5.971 c -1.145 0.475 -1.269 1.485 -1.269 1.897 c 0 0.413 0.123 1.425 1.268 1.898 c 1.127 0.466 2.006 1.344 2.474 2.473 c 0.468 1.129 0.468 2.371 0 3.499 l -2.325 5.612 c -0.466 1.127 -1.345 2.006 -2.474 2.474 c -1.127 0.467 -2.371 0.467 -3.498 0 c -1.144 -0.477 -1.946 0.152 -2.237 0.445 c -0.292 0.292 -0.919 1.095 -0.445 2.238 c 0.467 1.128 0.467 2.371 0 3.498 c -0.467 1.127 -1.345 2.006 -2.474 2.474 l -5.612 2.325 C 34.59 84.389 33.997 84.506 33.406 84.506 z M 27.285 78.415 c 1.31 0 2.981 0.657 3.745 2.501 c 0.263 0.635 0.756 1.129 1.391 1.392 c 0.635 0.264 1.334 0.263 1.969 0.001 l 5.611 -2.325 c 0.635 -0.263 1.129 -0.758 1.392 -1.392 c 0.263 -0.634 0.263 -1.333 0 -1.967 c -0.764 -1.844 -0.048 -3.49 0.878 -4.418 c 0.925 -0.926 2.57 -1.646 4.418 -0.879 c 0.635 0.264 1.332 0.264 1.967 0 c 0.635 -0.263 1.129 -0.757 1.392 -1.391 l 2.325 -5.613 c 0.263 -0.634 0.263 -1.333 0 -1.968 c -0.263 -0.635 -0.757 -1.128 -1.391 -1.391 c -1.846 -0.765 -2.503 -2.436 -2.503 -3.746 c 0 -1.309 0.657 -2.979 2.503 -3.745 c 1.309 -0.543 1.933 -2.049 1.391 -3.357 l -2.325 -5.613 c -0.263 -0.635 -0.756 -1.128 -1.392 -1.392 c -0.633 -0.263 -1.332 -0.263 -1.967 0 c -1.849 0.763 -3.494 0.047 -4.418 -0.879 c -0.926 -0.925 -1.643 -2.572 -0.878 -4.417 c 0.542 -1.309 -0.082 -2.815 -1.392 -3.359 l -5.613 -2.325 c -0.632 -0.262 -1.333 -0.262 -1.966 0 c -0.635 0.263 -1.129 0.756 -1.391 1.39 c -0.764 1.846 -2.436 2.503 -3.746 2.503 c -1.31 0 -2.981 -0.658 -3.746 -2.503 c -0.542 -1.307 -2.049 -1.93 -3.358 -1.389 l -5.614 2.325 c -1.308 0.543 -1.932 2.05 -1.39 3.358 c 0.764 1.845 0.047 3.492 -0.879 4.417 c -0.449 0.45 -2.097 1.841 -4.418 0.878 c -1.308 -0.538 -2.815 0.084 -3.358 1.393 l -2.325 5.612 c -0.541 1.309 0.082 2.815 1.39 3.357 l 0 0 c 1.846 0.765 2.503 2.436 2.503 3.745 c 0.001 1.309 -0.655 2.981 -2.502 3.746 c -0.635 0.263 -1.128 0.756 -1.391 1.391 c -0.263 0.635 -0.263 1.333 0 1.968 l 2.325 5.614 c 0.543 1.31 2.05 1.932 3.359 1.39 c 1.848 -0.768 3.494 -0.048 4.418 0.88 c 0.925 0.926 1.641 2.573 0.877 4.417 c -0.263 0.634 -0.263 1.333 0 1.967 c 0.263 0.635 0.757 1.129 1.391 1.392 l 5.613 2.325 c 1.308 0.54 2.815 -0.083 3.358 -1.393 C 24.304 79.072 25.976 78.415 27.285 78.415 z" style="stroke: none; stroke-width: 1; stroke-dasharray: none; stroke-linecap: butt; stroke-linejoin: miter; stroke-miterlimit: 10; fill: rgb(0,0,0); fill-rule: nonzero; opacity: 1;" transform=" matrix(1 0 0 1 0 0) " stroke-linecap="round" />
	<path d="M 27.285 68.918 c -6.45 0 -11.697 -5.248 -11.697 -11.698 s 5.247 -11.697 11.697 -11.697 c 6.45 0 11.698 5.247 11.698 11.697 S 33.735 68.918 27.285 68.918 z M 27.285 47.523 c -5.347 0 -9.697 4.351 -9.697 9.697 c 0 5.348 4.35 9.698 9.697 9.698 s 9.698 -4.351 9.698 -9.698 C 36.983 51.873 32.632 47.523 27.285 47.523 z" style="stroke: none; stroke-width: 1; stroke-dasharray: none; stroke-linecap: butt; stroke-linejoin: miter; stroke-miterlimit: 10; fill: rgb(0,0,0); fill-rule: nonzero; opacity: 1;" transform=" matrix(1 0 0 1 0 0) " stroke-linecap="round" />
	<path d="M 72.721 44.476 c -0.456 0 -0.911 -0.09 -1.344 -0.27 c -0.865 -0.358 -1.54 -1.033 -1.899 -1.9 c -0.256 -0.617 -0.774 -0.708 -1.062 -0.708 c -0.286 0 -0.805 0.092 -1.061 0.708 c -0.741 1.79 -2.801 2.64 -4.588 1.901 l -3.949 -1.636 c -0.866 -0.359 -1.541 -1.034 -1.9 -1.9 c -0.359 -0.867 -0.359 -1.821 0 -2.687 c 0.256 -0.617 -0.047 -1.049 -0.249 -1.252 c -0.203 -0.204 -0.635 -0.504 -1.25 -0.249 c -1.788 0.742 -3.846 -0.11 -4.589 -1.899 l -1.636 -3.95 c -0.359 -0.867 -0.359 -1.822 0 -2.688 c 0.359 -0.867 1.034 -1.542 1.9 -1.901 c 0.618 -0.256 0.709 -0.773 0.708 -1.058 c 0 -0.29 -0.092 -0.808 -0.708 -1.063 L 51.478 23 l -0.384 0.923 c -1.788 -0.741 -2.641 -2.798 -1.9 -4.587 l 1.637 -3.95 c 0.74 -1.787 2.8 -2.639 4.586 -1.901 c 0.624 0.256 1.051 -0.046 1.253 -0.248 c 0.203 -0.203 0.505 -0.634 0.249 -1.251 c -0.74 -1.788 0.112 -3.846 1.898 -4.588 l 3.951 -1.636 c 1.79 -0.742 3.848 0.113 4.588 1.899 c 0.256 0.617 0.774 0.709 1.061 0.709 c 0.287 0 0.806 -0.092 1.062 -0.709 c 0.359 -0.866 1.034 -1.541 1.9 -1.9 c 0.861 -0.357 1.825 -0.357 2.686 -0.001 l 3.95 1.636 c 1.789 0.743 2.642 2.801 1.9 4.589 c -0.256 0.617 0.046 1.048 0.248 1.25 c 0.205 0.204 0.639 0.503 1.252 0.25 c 0.867 -0.359 1.821 -0.358 2.688 0 c 0.866 0.359 1.541 1.034 1.9 1.9 l 1.636 3.949 c 0.74 1.789 -0.112 3.846 -1.9 4.587 c -0.617 0.256 -0.709 0.774 -0.709 1.061 c 0 0.287 0.092 0.806 0.709 1.062 c 0.867 0.359 1.542 1.034 1.9 1.901 c 0.359 0.865 0.358 1.82 -0.001 2.687 l -1.635 3.948 c -0.359 0.867 -1.034 1.541 -1.9 1.9 c -0.867 0.359 -1.823 0.359 -2.688 0 c -0.619 -0.256 -1.048 0.046 -1.251 0.249 c -0.202 0.203 -0.505 0.635 -0.249 1.251 c 0.359 0.866 0.359 1.821 0 2.688 c -0.359 0.867 -1.034 1.541 -1.9 1.9 l -3.948 1.636 C 73.632 44.386 73.176 44.476 72.721 44.476 z M 68.416 39.598 c 1.018 0 2.315 0.51 2.909 1.943 c 0.154 0.373 0.445 0.664 0.818 0.818 c 0.373 0.154 0.783 0.154 1.158 0 l 3.947 -1.635 c 0.373 -0.154 0.664 -0.445 0.818 -0.818 c 0.154 -0.373 0.154 -0.784 0 -1.157 c -0.594 -1.433 -0.037 -2.712 0.683 -3.431 s 1.999 -1.276 3.431 -0.683 c 0.375 0.156 0.786 0.154 1.157 0 c 0.373 -0.154 0.664 -0.445 0.818 -0.818 l 1.635 -3.948 c 0.155 -0.374 0.155 -0.785 0.001 -1.157 c -0.154 -0.374 -0.445 -0.664 -0.818 -0.818 c -1.433 -0.594 -1.943 -1.892 -1.943 -2.909 c 0 -1.017 0.511 -2.314 1.943 -2.909 c 0.77 -0.319 1.137 -1.205 0.818 -1.975 l -1.636 -3.949 c -0.154 -0.373 -0.445 -0.664 -0.818 -0.818 c -0.373 -0.154 -0.783 -0.155 -1.158 0 c -1.433 0.593 -2.71 0.036 -3.43 -0.683 c -0.72 -0.718 -1.277 -1.997 -0.683 -3.431 c 0.319 -0.77 -0.048 -1.656 -0.818 -1.976 L 73.3 7.609 c -0.373 -0.154 -0.783 -0.155 -1.156 0 c -0.373 0.155 -0.664 0.445 -0.818 0.818 c -0.594 1.433 -1.892 1.943 -2.908 1.943 c -1.018 0 -2.316 -0.511 -2.909 -1.944 c -0.319 -0.769 -1.209 -1.133 -1.976 -0.816 l -3.949 1.635 c -0.769 0.319 -1.136 1.206 -0.817 1.976 c 0.595 1.434 0.037 2.712 -0.684 3.431 c -0.718 0.718 -1.999 1.275 -3.43 0.681 c -0.77 -0.319 -1.655 0.051 -1.975 0.819 l -1.637 3.949 c -0.318 0.77 0.049 1.655 0.818 1.974 l 0 0 c 1.433 0.594 1.943 1.892 1.943 2.909 c 0.003 1.015 -0.506 2.314 -1.942 2.909 c -0.373 0.154 -0.664 0.445 -0.818 0.819 c -0.154 0.373 -0.154 0.784 0 1.157 l 1.636 3.949 c 0.319 0.77 1.208 1.137 1.976 0.817 c 1.435 -0.593 2.714 -0.036 3.432 0.684 c 0.718 0.718 1.274 1.997 0.681 3.43 c -0.154 0.373 -0.154 0.783 0 1.156 c 0.154 0.373 0.445 0.664 0.818 0.818 l 3.949 1.636 c 0.772 0.319 1.655 -0.05 1.975 -0.819 C 66.102 40.108 67.4 39.598 68.416 39.598 z" style="stroke: none; stroke-width: 1; stroke-dasharray: none; stroke-linecap: butt; stroke-linejoin: miter; stroke-miterlimit: 10; fill: rgb(0,0,0); fill-rule: nonzero; opacity: 1;" transform=" matrix(1 0 0 1 0 0) " stroke-linecap="round" />
	<path d="M 68.417 33.51 c -4.701 0 -8.525 -3.825 -8.525 -8.526 c 0 -4.701 3.824 -8.525 8.525 -8.525 s 8.525 3.825 8.525 8.525 C 76.943 29.685 73.118 33.51 68.417 33.51 z M 68.417 18.459 c -3.598 0 -6.525 2.927 -6.525 6.525 s 2.928 6.526 6.525 6.526 s 6.525 -2.928 6.525 -6.526 S 72.015 18.459 68.417 18.459 z" style="stroke: none; stroke-width: 1; stroke-dasharray: none; stroke-linecap: butt; stroke-linejoin: miter; stroke-miterlimit: 10; fill: rgb(0,0,0); fill-rule: nonzero; opacity: 1;" transform=" matrix(1 0 0 1 0 0) " stroke-linecap="round" />
	<path d="M 77.848 81.037 c -0.386 0 -0.771 -0.076 -1.137 -0.228 c -0.733 -0.305 -1.305 -0.876 -1.609 -1.61 c -0.146 -0.351 -0.426 -0.424 -0.636 -0.424 c -0.21 0 -0.49 0.073 -0.636 0.425 c -0.628 1.515 -2.371 2.235 -3.886 1.609 l -3.103 -1.286 c -0.732 -0.303 -1.305 -0.874 -1.609 -1.609 c -0.305 -0.733 -0.305 -1.542 0 -2.276 c 0.146 -0.351 -0.001 -0.602 -0.149 -0.75 c -0.148 -0.149 -0.397 -0.292 -0.751 -0.149 c -0.73 0.305 -1.541 0.305 -2.275 0 c -0.733 -0.305 -1.305 -0.875 -1.609 -1.608 l -1.286 -3.103 c -0.303 -0.735 -0.303 -1.543 -0.001 -2.276 c 0.305 -0.734 0.876 -1.306 1.609 -1.61 c 0.354 -0.146 0.427 -0.424 0.426 -0.632 c 0 -0.214 -0.073 -0.494 -0.424 -0.64 l -0.002 -0.001 c -1.514 -0.627 -2.235 -2.37 -1.608 -3.885 l 1.286 -3.103 c 0.627 -1.512 2.368 -2.235 3.885 -1.611 c 0.351 0.147 0.604 0.001 0.751 -0.147 c 0.148 -0.148 0.295 -0.399 0.149 -0.75 c -0.627 -1.515 0.095 -3.258 1.608 -3.886 l 3.104 -1.286 c 1.519 -0.628 3.258 0.097 3.886 1.608 c 0.146 0.352 0.426 0.426 0.636 0.426 c 0.21 0 0.491 -0.074 0.637 -0.426 c 0.303 -0.731 0.874 -1.304 1.609 -1.608 c 0.73 -0.303 1.546 -0.303 2.274 0 l 3.105 1.285 c 1.515 0.629 2.236 2.373 1.609 3.887 c -0.117 0.281 -0.066 0.534 0.15 0.752 c 0.146 0.146 0.397 0.292 0.749 0.147 c 0.734 -0.305 1.542 -0.305 2.276 0 c 0.732 0.303 1.305 0.874 1.609 1.609 l 1.285 3.103 c 0.304 0.732 0.304 1.541 0 2.275 c -0.305 0.734 -0.876 1.306 -1.608 1.609 c -0.352 0.146 -0.426 0.427 -0.426 0.637 s 0.073 0.49 0.425 0.636 c 0.733 0.305 1.305 0.876 1.609 1.609 c 0.305 0.734 0.305 1.543 0 2.277 l -1.285 3.102 c -0.305 0.735 -0.877 1.307 -1.61 1.61 c -0.732 0.303 -1.542 0.304 -2.276 -0.001 c -0.353 -0.145 -0.601 0.001 -0.75 0.149 c -0.215 0.216 -0.266 0.469 -0.148 0.749 c 0.304 0.736 0.304 1.544 0 2.276 c -0.304 0.734 -0.876 1.307 -1.61 1.611 l -3.102 1.285 C 78.62 80.962 78.234 81.037 77.848 81.037 z M 74.466 76.775 c 0.868 0 1.978 0.436 2.483 1.658 c 0.102 0.244 0.284 0.428 0.527 0.528 c 0.242 0.102 0.502 0.101 0.748 -0.001 l 3.101 -1.284 c 0.244 -0.102 0.427 -0.284 0.528 -0.528 c 0.1 -0.24 0.099 -0.505 -0.001 -0.746 c -0.505 -1.219 -0.031 -2.311 0.581 -2.927 c 0.615 -0.617 1.711 -1.091 2.931 -0.585 c 0.242 0.1 0.507 0.099 0.747 0 c 0.244 -0.101 0.426 -0.283 0.527 -0.527 l 1.285 -3.102 c 0.1 -0.24 0.1 -0.506 0 -0.746 c -0.102 -0.244 -0.283 -0.426 -0.527 -0.527 c -1.224 -0.507 -1.659 -1.615 -1.659 -2.483 s 0.437 -1.977 1.66 -2.484 c 0.239 -0.1 0.426 -0.286 0.525 -0.527 c 0.101 -0.24 0.101 -0.505 0.001 -0.744 l -1.285 -3.103 c -0.102 -0.244 -0.283 -0.427 -0.526 -0.526 c -0.244 -0.104 -0.503 -0.103 -0.747 -0.001 c -1.225 0.507 -2.316 0.031 -2.93 -0.583 c -0.614 -0.617 -1.088 -1.71 -0.582 -2.931 c 0.205 -0.495 -0.031 -1.066 -0.528 -1.272 l -3.103 -1.285 c -0.24 -0.1 -0.503 -0.1 -0.745 0 c -0.243 0.102 -0.426 0.283 -0.525 0.526 c -0.509 1.225 -1.617 1.66 -2.485 1.66 c -0.868 0 -1.977 -0.437 -2.483 -1.661 c -0.206 -0.494 -0.779 -0.73 -1.273 -0.525 l -3.103 1.286 c -0.495 0.205 -0.731 0.776 -0.526 1.273 c 0.507 1.223 0.031 2.314 -0.583 2.929 c -0.614 0.613 -1.709 1.089 -2.93 0.582 c -0.493 -0.203 -1.066 0.032 -1.272 0.528 l -1.286 3.103 c -0.205 0.496 0.031 1.066 0.526 1.271 l 0 0 c 1.224 0.507 1.66 1.616 1.66 2.484 c 0.003 0.865 -0.431 1.976 -1.66 2.483 c -0.239 0.1 -0.427 0.287 -0.526 0.527 c -0.101 0.243 -0.101 0.503 0.001 0.748 l 1.285 3.102 c 0.1 0.239 0.287 0.427 0.527 0.526 c 0.24 0.1 0.506 0.1 0.744 0 c 1.231 -0.505 2.321 -0.03 2.933 0.585 c 0.612 0.612 1.088 1.704 0.581 2.928 c -0.1 0.241 -0.1 0.505 0 0.744 c 0.102 0.245 0.283 0.428 0.526 0.527 l 3.104 1.287 c 0.494 0.203 1.066 -0.031 1.272 -0.527 C 72.49 77.211 73.598 76.775 74.466 76.775 z" style="stroke: none; stroke-width: 1; stroke-dasharray: none; stroke-linecap: butt; stroke-linejoin: miter; stroke-miterlimit: 10; fill: rgb(0,0,0); fill-rule: nonzero; opacity: 1;" transform=" matrix(1 0 0 1 0 0) " stroke-linecap="round" />
	<path d="M 74.466 72.419 c -3.812 0 -6.914 -3.102 -6.914 -6.915 c 0 -3.812 3.102 -6.915 6.914 -6.915 c 3.812 0 6.915 3.102 6.915 6.915 C 81.381 69.316 78.278 72.419 74.466 72.419 z M 74.466 60.589 c -2.71 0 -4.914 2.205 -4.914 4.915 s 2.204 4.915 4.914 4.915 c 2.71 0 4.915 -2.205 4.915 -4.915 S 77.176 60.589 74.466 60.589 z" style="stroke: none; stroke-width: 1; stroke-dasharray: none; stroke-linecap: butt; stroke-linejoin: miter; stroke-miterlimit: 10; fill: rgb(0,0,0); fill-rule: nonzero; opacity: 1;" transform=" matrix(1 0 0 1 0 0) " stroke-linecap="round" />
</g>
</svg>